<?xml version="1.0" encoding="UTF-8"?>
<svg id="LOGO" xmlns="http://www.w3.org/2000/svg" viewBox="0 0 1470 270">
  <rect x="310" y="80" width="40" height="160" />
  <rect x="310" y="20" width="40" height="40" />
  <path
    d="m490,75c-18.69,0-35.96997,6.02997-50,16.26001v-11.26001h-40v160h40v-101.52002c11.90997-14.34998,29.89001-23.47998,50-23.47998,24.84998,0,45,20.14996,45,45v80h40v-80c0-46.94-38.06-85-85-85Z" />
  <path
    d="m695.91998,204.98999c-.29999.01001-.60999.01001-.91998.01001s-.62,0-.91998-.01001c-18.91003-.48999-34.08002-15.97003-34.08002-34.98999v-55h85v-35h-85v-40h-40v40h-30v35h30v55c0,40.69,32.40002,73.81,72.81,74.96997h.01001c.71997.02002,1.45001.03003,2.17999.03003,20.96997,0,40.17999-7.60004,55-20.20001v-.01001l-19.63-30.25c-9.94,6.46002-21.75,10.28003-34.45001,10.45001Z" />
  <path
    d="m938.18994,142.5c-1.66992-7.97003-4.45996-15.54004-8.18994-22.52002-1.52002-2.83002-3.18994-5.56-5-8.19-15.32007-22.21997-40.95996-36.78998-70-36.78998-40.93994,0-75.13,28.95001-83.18994,67.5-1.02002,4.87-1.63013,9.89001-1.77002,15.02997-.03003.82001-.04004,1.64001-.04004,2.47003,0,6,.62,11.85999,1.81006,17.5.17993.83997.36987,1.66998.56995,2.5,8.88,36.87,41.80994,64.37,81.26001,64.97998.45007.02002.91003.02002,1.35999.02002s.90991,0,1.35999-.02002c28.13-.31,53.81995-10.73999,73.64001-27.79999l-5.78003-7.87-13.02002-17.73999c-.35986.26996-.71997.52997-1.07996.78998-15.15002,10.83002-33.63,17.32001-53.59998,17.62-.5.02002-1.01001.02002-1.52002.02002s-1.02002,0-1.52002-.02002c-20.79004-.62-38.3999-13.95001-45.32007-32.47998h130.03003c1.19006-5.64001,1.81006-11.5,1.81006-17.5,0-.83002-.01001-1.65002-.04004-2.47003-.13989-5.13995-.73999-10.15997-1.77002-15.02997Zm-130.03003,0c7.09009-18.98004,25.39014-32.5,46.84009-32.5s39.75,13.51996,46.84009,32.5h-93.68018Z" />
  <path
    d="m1250,75c-.44995,0-.90991,0-1.35999.02002-28.13.31-53.81995,10.73999-73.64001,27.79999l5.78003,7.87,13.02002,17.73999c.35986-.26996.71997-.52997,1.07996-.78998,15.15002-10.83002,33.63-17.32001,53.59998-17.62.5-.02002,1.01001-.02002,1.52002-.02002,22.09009,0,40,8.95001,40,20v12.5h-60c-3.43994,0-6.81006.22998-10.09009.66998h-.00989c-14.78003,1.97998-27.70007,8.23999-36.70007,17.09998-5.37988,5.31-9.35986,11.55005-11.46997,18.37006-1.13,3.63995-1.72998,7.43994-1.72998,11.35999,0,.40997.01001.82001.02002,1.22998.82996,29.81,31.83997,53.77002,69.97998,53.77002,18.09998,0,35.13-4.58002,50-12.65002v7.65002h40v-110c0-30.38-35.82007-55-80-55Zm39.65991,120.06c-13.80994,9.16998-30.28992,14.58997-48.02991,14.90997-.53992.02002-1.07996.03003-1.63.03003-.60327,0-1.19995-.02747-1.80042-.03925-15.41553-.60858-27.69788-8.97095-28.16956-19.32074-.02002-.21002-.03003-.43005-.03003-.64001,0-.21002.01001-.42999.03003-.64001.29004-3.67999,3.12988-6.92999,7.43994-9.09998,3.43005-1.73004,7.79004-2.76001,12.53003-2.76001h60v17.33997c-.10999.08002-.22998.16003-.34009.22003Z" />
  <path
    d="m1138.18994,142.5c-1.66992-7.97003-4.45996-15.54004-8.18994-22.52002-1.52002-2.83002-3.18994-5.56-5-8.19-15.32007-22.21997-40.95996-36.78998-70-36.78998-40.93994,0-75.13,28.95001-83.18994,67.5-1.02002,4.87-1.63013,9.89001-1.77002,15.02997-.03003.82001-.04004,1.64001-.04004,2.47003,0,6,.62,11.85999,1.81006,17.5.17993.83997.36987,1.66998.56995,2.5,8.88,36.87,41.80994,64.37,81.26001,64.97998.45007.02002.91003.02002,1.35999.02002s.90991,0,1.35999-.02002c28.13-.31,53.81995-10.73999,73.64001-27.79999l-5.78003-7.87-13.02002-17.73999c-.35986.26996-.71997.52997-1.07996.78998-15.15002,10.83002-33.63,17.32001-53.59998,17.62-.5.02002-1.01001.02002-1.52002.02002s-1.02002,0-1.52002-.02002c-20.79004-.62-38.3999-13.95001-45.32007-32.47998h130.03003c1.19006-5.64001,1.81006-11.5,1.81006-17.5,0-.83002-.01001-1.65002-.04004-2.47003-.13989-5.13995-.73999-10.15997-1.77002-15.02997Zm-130.03003,0c7.09009-18.98004,25.39014-32.5,46.84009-32.5s39.75,13.51996,46.84009,32.5h-93.68018Z" />
  <rect x="1370" y="20" width="80" height="80" />
  <polygon
    points="220 20 140 100 60 20 20 20 20 240 60 240 60 76.56 140 156.57001 220 76.56 220 240 260 240 260 20 220 20" />
</svg>