<?xml version="1.0" encoding="UTF-8"?>
<svg id="LOGO" xmlns="http://www.w3.org/2000/svg" viewBox="0 0 1400 280">
  <rect x="1300" y="40" width="80" height="80" />
  <path
    d="m1180,75c-25.70996,0-48.58008,9.08997-63.21997,23.22998l18.59998,33.82001c12.12-7.53003,27.66003-12.04999,44.62-12.04999,16.57007,0,30,8.95001,30,20v2.5h-45c-35.90002,0-65,21.26996-65,47.5,0,30.38,29.09998,55,65,55,17.47168,0,33.32007-5.84241,45-15.33105v10.33105h50v-105c0-33.14001-35.82007-60-80-60Zm-5,130c-13.81006,0-25-6.72003-25-15,0-6.90002,6.71997-12.5,15-12.5h45v19.63202c-10.10339,4.97803-22.11145,7.86798-35,7.86798Z" />
  <path
    d="m1000,75c-46.93994,0-85,38.06-85,85s38.06006,85,85,85c28.89001,0,54.91992-12.25,73.15991-31.84003l-30.22998-30.22998c-11.20996,10.58002-26.30994,17.07001-42.92993,17.07001-16.78381,0-31.14526-10.34387-37.08081-25h115.84082c.81006-4.87,1.23999-9.88,1.23999-15,0-6.89001-.77002-13.59003-2.23999-20-8.44995-37.29004-40.06006-65-77.76001-65Zm-34.63477,65c6.91748-11.95221,19.83289-20,34.63477-20,14.80005,0,27.72998,8.03998,34.65002,20h-69.28479Z" />
  <path
    d="m810,75c-46.94,0-85,38.06-85,85s38.06,85,85,85c28.89001,0,54.91998-12.25,73.15997-31.84003l-30.22998-30.22998c-11.21002,10.58002-26.31,17.07001-42.92999,17.07001-16.78381,0-31.14532-10.34387-37.08081-25h115.84082c.81006-4.87,1.23999-9.88,1.23999-15,0-6.89001-.77002-13.59003-2.23999-20-8.45001-37.29004-40.06-65-77.76001-65Zm-34.63477,65c6.91748-11.95221,19.83289-20,34.63477-20,14.79999,0,27.72998,8.03998,34.65002,20h-69.28479Z" />
  <path
    d="m667.5,200c-17.95001,0-32.5-14.54999-32.5-32.5v-42.5h70v-45h-70v-40h-50v40h-25v45h25v45c0,41.41998,33.58002,75,75,75,20.82001,0,39.65997-8.48004,53.25-22.19l-24.54999-30.67999c-5.69,4.89996-13.09003,7.87-21.20001,7.87Z" />
  <path
    d="m470,75c-19.21002,0-36.72998,7.22998-50,19.10999v-14.10999h-50v160h50v-97.75c9.81-10.40002,23.64001-16.97003,39.01001-17.23999.33002-.01001.65997-.01001.98999-.01001s.65997,0,.98999.01001c18.87.52997,34.01001,15.98999,34.01001,34.98999v80h50v-90c0-41.42004-33.58002-75-75-75Z" />
  <rect x="280" y="110" width="50" height="130" />
  <rect x="280" y="40" width="50" height="50" />
  <polygon
    points="130 100 70 40 20 40 20 240 70 240 70 110 130 170 190 110 190 240 240 240 240 40 190 40 130 100" />
</svg>