<?xml version="1.0" encoding="UTF-8"?>
<svg id="LOGO" xmlns="http://www.w3.org/2000/svg" viewBox="0 0 1400 280">
  <rect x="1300" y="40" width="80" height="80" />
  <path
    d="m1180,75c-25.70996,0-48.58008,9.08997-63.21997,23.22998l14.30005,26.01001c12.61987-8.81,29.87988-14.23999,48.91992-14.23999,22.09009,0,40,13.42999,40,30v2.5h-55c-35.34009,0-64.09009,20.60999-64.97998,46.26996-.01001.41003-.02002.82001-.02002,1.23004,0,30.38,31.34009,55,70,55,19.5918,0,37.29419-6.33038,50-16.52161v11.52161h40v-105c0-33.14001-35.82007-60-80-60Zm-5,135c-19.33008,0-35-8.95001-35-20,0-6.90002,11.18994-12.5,25-12.5h55v19.26587c-11.67859,8.19312-27.53223,13.23413-45,13.23413Z" />
  <path
    d="m1000,75c-46.94,0-85,38.06-85,85s38.06,85,85,85c28.89001,0,54.91992-12.25,73.15991-31.84003l-23.15991-23.15997c-13.01001,12.39001-30.62,20-50,20-21.44995,0-39.75-13.52002-46.84003-32.5h127.58002c1.16003-5.65002,1.76001-11.5,1.76001-17.5s-.59998-11.85004-1.76001-17.5c-7.82007-38.54999-41-67.5-80.73999-67.5Zm-46.84003,67.5c7.09003-18.98004,25.39008-32.5,46.84003-32.5s39.75,13.51996,46.84009,32.5h-93.68011Z" />
  <path
    d="m810,75c-46.94,0-85,38.06-85,85s38.06,85,85,85c28.89001,0,54.91998-12.25,73.15997-31.84003l-23.15997-23.15997c-13.01001,12.39001-30.62,20-50,20-21.45001,0-39.75-13.52002-46.84003-32.5h127.58002c1.16003-5.65002,1.76001-11.5,1.76001-17.5s-.59998-11.85004-1.76001-17.5c-7.82001-38.54999-41-67.5-80.73999-67.5Zm-46.84003,67.5c7.09003-18.98004,25.39001-32.5,46.84003-32.5s39.75,13.51996,46.84003,32.5h-93.68005Z" />
  <path
    d="m665,210c-22.09003,0-40-17.91003-40-40v-55h80v-35h-80v-40h-40v40h-25v35h25v55c0,41.41998,33.58002,75,75,75,20.82001,0,39.65997-8.48004,53.25-22.19l-19.78003-24.72003c-7.25,7.36005-17.32996,11.91003-28.46997,11.91003Z" />
  <path
    d="m465,75c-21.29999,0-40.65997,8.32996-55,21.89996v-16.89996h-40v160h40v-97.94c8.69-18.91998,27.81-32.06,50-32.06,1.69,0,3.35999.07996,5,.22998v.04999c22.5,2.48004,40,21.56,40,44.72003v85h40v-90h-.15997c-2.58002-41.85004-37.34003-75-79.84003-75Z" />
  <rect x="285" y="105" width="40" height="135" />
  <rect x="285" y="40" width="40" height="40" />
  <polygon
    points="130 110 60 40 20 40 20 240 60 240 60 95 130 165 200 95 200 240 240 240 240 40 200 40 130 110" />
</svg>